<svg width="624" height="107" xmlns="http://www.w3.org/2000/svg" xmlns:xlink="http://www.w3.org/1999/xlink" xml:space="preserve" overflow="hidden"><defs><clipPath id="clip0"><rect x="0" y="0" width="624" height="107"/></clipPath></defs><g clip-path="url(#clip0)"><path d="M292.871 102.036C292.044 101.457 290.362 100.464 289.148 99.8575 287.08 98.8095 286.721 98.7268 283.385 98.451 279.579 98.1477 279 97.9271 276.049 95.6657 275.525 95.2796 272.547 93.6526 269.458 92.0807 265.707 90.2054 263.777 89.0472 263.584 88.6611 263.17 87.7786 260.082 86.0688 258.344 85.7655 256.414 85.4621 253.408 83.8075 252.332 82.4562 251.836 81.8219 251.064 81.2428 250.485 81.0497 249.878 80.8567 248.913 80.1397 248.141 79.2848 247.424 78.4851 246.1 77.4095 245.245 76.8856 244.363 76.334 242.929 75.4791 242.074 74.9552 239.95 73.659 237.496 73.3832 235.097 74.1554 233.139 74.7897 226.851 75.3688 224.893 75.1206 224.148 75.0103 223.238 74.7621 222.825 74.5415 222.439 74.3485 222.025 74.183 221.915 74.183 221.804 74.183 221.032 73.7693 220.232 73.2454 219.405 72.7214 217.999 72.1147 217.061 71.8665 215.241 71.3977 212.897 70.4876 208.76 68.6675 205.01 67.0129 203.465 66.7923 194.42 66.7095 186.257 66.6268 185.54 66.682 181.762 67.8678 180.797 68.1711 178.922 68.5021 177.626 68.5848 175.447 68.7227 174.868 68.6124 170.29 67.4265L165.326 66.158 159.811 66.4338C155.977 66.6268 153.964 66.6268 153.192 66.4338 152.585 66.2683 150.848 66.0201 149.331 65.8822 147.814 65.7443 145.332 65.5237 143.816 65.4134 142.299 65.2755 140.506 64.9446 139.817 64.6964 137.087 63.6485 136.039 63.4278 133.888 63.4278 131.378 63.4278 129.889 63.0142 127.959 61.7732 127.269 61.332 125.835 60.7804 124.815 60.5322 123.767 60.284 122.471 59.8704 121.919 59.5946 121.368 59.2912 119.768 58.6845 118.362 58.2157 116.955 57.7469 113.839 56.368 111.44 55.1546 109.041 53.9412 106.945 52.9485 106.807 52.9485 106.697 52.9485 105.952 52.4245 105.207 51.8178 104.435 51.1835 103.139 50.3562 102.312 49.9977 101.485 49.6116 100.602 49.1428 100.381 48.9497 100.161 48.7567 99.2784 48.3155 98.451 48.0121 97.6237 47.7088 93.7629 45.6405 89.9021 43.4067 86.0412 41.2005 81.5737 38.8289 79.9742 38.1394 66.2959 32.2655 62.0765 30.5557 60.5322 30.3626 59.2912 30.2247 58.5191 29.9214 57.3884 29.1492 56.5887 28.5977 55.5959 28.1289 55.1822 28.1289 54.7686 28.1289 52.4796 27.1912 50.0528 26.033 47.2675 24.7369 45.1992 23.9095 44.3995 23.8544 34.4992 22.8892 32.6791 22.5031 26.8879 20.1866 23.9647 19.0284 23.7717 18.9732 21.8137 19.1662 19.9108 19.3593 19.7178 19.3041 18.0356 18.4492 16.4361 17.6495 15.9673 17.5392 13.2923 17.4289 11.6652 17.3737 10.176 17.1807 9.98299 17.0152 9.78995 16.8773 8.24562 16.4637 6.53582 16.1327 4.21933 15.6915 3.19897 15.6088 2.4268 15.8018 1.84768 15.9397 1.07552 15.9673 0.689433 15.8845L0 15.7191 0 7.85954 0 0 311.072 0 622.144 0 622.144 1.65464 622.144 3.2817 620.986 3.25412C620.324 3.22655 619.442 3.33686 618.973 3.50232 618.532 3.66778 616.601 4.19175 614.698 4.66057 607.694 6.39794 606.536 6.70129 605.322 7.1701 604.633 7.44588 603.226 7.85954 602.151 8.10773 598.125 9.01778 590.099 11.1964 588.362 11.8582 586.349 12.6028 585.687 12.7959 584.088 13.1544 583.095 13.3474 581.744 13.8162 581.054 14.1747 579.234 15.1124 575.897 16.2706 574.987 16.2706 574.546 16.2706 573.856 16.574 573.415 16.9325 572.781 17.4564 572.257 17.5943 570.52 17.6771 568.644 17.7874 568.258 17.8977 567.21 18.6698 564.425 20.7657 564.011 20.9863 562.329 21.2621 561.391 21.4 559.82 21.8964 558.882 22.3376 557.917 22.8064 556.979 23.1649 556.759 23.1649 556.538 23.1649 555.821 23.4407 555.131 23.7441 554.442 24.075 553.642 24.3784 553.339 24.4059 553.036 24.4611 552.208 24.7369 551.546 25.0402 550.857 25.3436 549.368 25.8124 548.237 26.0606 547.106 26.3363 545.617 26.8052 544.928 27.1085 544.128 27.4946 542.942 27.7152 541.481 27.7704 540.267 27.8531 539.026 27.991 538.723 28.1289 538.42 28.2392 537.758 28.4874 537.289 28.6804 536.793 28.8735 536.379 29.2044 536.379 29.3974 536.379 29.6732 536.02 29.7835 535.303 29.7835 534.559 29.7835 533.511 30.1696 531.994 30.9418 530.036 31.9621 529.485 32.1 527.416 32.2379 525.486 32.3758 524.962 32.5137 524.576 32.9825 524.328 33.2858 523.804 33.6719 523.418 33.8374 522.563 34.1959 519.474 34.7474 518.012 34.775 516.827 34.775 514.069 35.3265 513.6 35.6299 513.462 35.7402 512.635 35.9057 511.807 36.016 510.98 36.1263 510.208 36.2918 510.043 36.4021 509.491 36.8157 506.127 38.0567 505.547 38.0567 505.216 38.0567 504.72 38.167 504.444 38.3325 503.424 38.884 501.99 39.408 501.025 39.5735 500.446 39.6562 499.977 39.8217 499.977 39.932 499.977 40.0423 499.563 40.2629 499.094 40.4284 498.598 40.6214 497.743 40.8972 497.219 41.0902 495.509 41.7245 495.178 41.8348 494.048 42.1933 493.441 42.3863 492.09 42.9379 491.014 43.4619 489.966 43.9582 487.098 45.1165 484.671 45.999 482.245 46.909 478.99 48.343 477.419 49.2255 474.744 50.7423 474.468 50.825 472.179 50.9905 470 51.1284 469.642 51.2387 468.428 52.1211L467.105 53.0863 461.672 53.1691C456.543 53.2518 456.129 53.307 453.757 54.0791 452.378 54.5204 450.531 55.3201 449.676 55.8441 448.821 56.3405 447.47 57.0299 446.67 57.3332 445.898 57.609 444.822 58.0778 444.298 58.326 443.802 58.6018 442.533 58.9052 441.513 59.0155 439.941 59.1809 438.921 59.567 435.17 61.4698 432.716 62.6833 430.454 63.7036 430.151 63.7036 429.875 63.7036 428.303 64.3655 426.676 65.1928 425.049 66.0201 422.485 67.2887 420.968 67.9781 419.451 68.6951 417.796 69.5776 417.328 69.9361 416.831 70.3222 415.287 71.0392 413.88 71.5356 412.474 72.032 410.709 72.749 409.937 73.1351 407.786 74.2381 400.037 78.8711 396.976 80.8567 395.321 81.9598 393.556 82.8699 392.591 83.1456 390.688 83.6696 388.978 84.7727 387.847 86.1516 387.268 86.8686 386.689 87.2271 385.669 87.4753 384.924 87.6683 383.931 88.1095 383.518 88.4405 382.966 88.8817 382.36 89.0747 381.505 89.0747 380.843 89.0747 379.519 89.3781 378.581 89.7366 377.616 90.0951 375.686 90.757 374.252 91.1982 372.211 91.8049 371.411 92.2186 370.363 93.1286 367.771 95.4451 364.627 96.0242 362.007 94.6729 360.656 93.9559 360.298 93.9008 355.61 93.7353 351.473 93.5974 350.425 93.4871 349.405 93.0183 347.612 92.2186 345.434 91.7497 344.441 91.9704 343.972 92.0807 343.255 92.4392 342.814 92.7977 342.4 93.1562 341.049 93.9559 339.863 94.5626 338.456 95.2521 337.546 95.8863 337.353 96.3 337.133 96.7964 336.664 97.0722 335.478 97.3479 334.43 97.5961 333.768 97.9271 333.493 98.3407 333.272 98.6992 332.693 99.0577 332.224 99.1405 331.728 99.2508 331.093 99.499 330.762 99.692 330.431 99.9126 329.714 100.161 329.163 100.244 328.611 100.354 327.729 100.74 327.177 101.098 326.295 101.705 325.854 101.76 320.366 102.009 315.016 102.257 314.354 102.257 312.451 101.76 311.32 101.485 309.748 101.181 308.976 101.126 307.294 100.988 303.819 101.512 303.213 102.036 302.964 102.257 302.413 102.312 301.779 102.229 301.227 102.119 299.572 102.284 298.001 102.588 296.456 102.891 295.022 103.112 294.802 103.112 294.581 103.084 293.698 102.615 292.871 102.036Z" fill="#3B332D" transform="matrix(1.00234 0 0 -1 0.201031 107)"/></g></svg>